<svg width="25" height="25" viewBox="0 0 25 25" fill="none" xmlns="http://www.w3.org/2000/svg">
<path d="M21.323 4.61183C20.8123 4.10083 20.2058 3.69547 19.5384 3.41891C18.8709 3.14235 18.1555 3 17.433 3C16.7105 3 15.9951 3.14235 15.3277 3.41891C14.6602 3.69547 14.0538 4.10083 13.543 4.61183L12.483 5.67183L11.423 4.61183C10.3913 3.58013 8.99206 3.00053 7.53303 3.00053C6.074 3.00053 4.67472 3.58013 3.64303 4.61183C2.61134 5.64352 2.03174 7.04279 2.03174 8.50183C2.03174 9.96086 2.61134 11.3601 3.64303 12.3918L4.70303 13.4518L12.483 21.2318L20.263 13.4518L21.323 12.3918C21.834 11.8811 22.2394 11.2746 22.5159 10.6072C22.7925 9.93972 22.9349 9.22431 22.9349 8.50183C22.9349 7.77934 22.7925 7.06393 22.5159 6.39647C22.2394 5.72901 21.834 5.12258 21.323 4.61183V4.61183Z" fill="#EE5253"/>
</svg>
